<svg xmlns:xlink="http://www.w3.org/1999/xlink" xmlns="http://www.w3.org/2000/svg" width="41" height="40" viewBox="0 0 41 40" fill="none"><g clip-path="url(#clip0_1_592)" fill="#89C86D"><path d="M40.5 20C40.5 8.95437 31.5456 0 20.5 0C9.45437 0 0.5 8.95437 0.5 20C0.5 29.9825 7.81375 38.2567 17.375 39.757V25.7812H12.2969V20H17.375V15.5937C17.375 10.5812 20.3609 7.8125 24.9294 7.8125C27.1175 7.8125 29.4062 8.20312 29.4062 8.20312V13.125H26.8844C24.3998 13.125 23.625 14.6667 23.625 16.2484V20H29.1719L28.2852 25.7812H23.625V39.757C33.1862 38.2567 40.5 29.9827 40.5 20Z" fill="#1877F2"></path><path d="M28.2852 25.7812L29.1719 20H23.625V16.2484C23.625 14.6666 24.3998 13.125 26.8844 13.125H29.4062V8.20312C29.4062 8.20312 27.1175 7.8125 24.9292 7.8125C20.3609 7.8125 17.375 10.5813 17.375 15.5938V20H12.2969V25.7812H17.375V39.757C18.4088 39.919 19.4536 40.0002 20.5 40C21.5464 40.0002 22.5912 39.919 23.625 39.757V25.7812H28.2852Z" fill="#FFFFFF"></path></g><defs><clipPath id="clip0_1_592"><rect width="40" height="40" fill="white" transform="translate(0.5)"></rect></clipPath></defs></svg>