<svg xmlns:xlink="http://www.w3.org/1999/xlink" xmlns="http://www.w3.org/2000/svg" width="24" height="24" viewBox="0 0 24 24" fill="none"><g clip-path="url(#clip0_4_964)" fill="#FFFFFF"><path d="M15.75 16.875H15.2812C15.2812 18.6843 13.8093 20.1562 12 20.1562C10.1907 20.1562 8.71875 18.6843 8.71875 16.875H8.25C5.27761 16.875 2.85938 19.2932 2.85938 22.2656V23.2969C2.85938 23.6852 3.17419 24 3.5625 24H20.4375C20.8258 24 21.1406 23.6852 21.1406 23.2969V22.2656C21.1406 19.2932 18.7224 16.875 15.75 16.875Z" fill="#FFFFFF"></path><path d="M10.1249 16.1719V16.875C10.1249 17.9105 10.9644 18.75 11.9999 18.75C13.0355 18.75 13.8749 17.9105 13.8749 16.875V16.1719H10.1249ZM11.9999 2.8125C12.3883 2.8125 12.7031 2.49769 12.7031 2.10938V0.703125C12.7031 0.314812 12.3883 0 11.9999 0C11.6116 0 11.2968 0.314812 11.2968 0.703125V2.10938C11.2968 2.49769 11.6116 2.8125 11.9999 2.8125ZM6.70353 2.3107L7.40666 3.52856C7.60082 3.86484 8.03085 3.98006 8.36713 3.78591C8.70341 3.59175 8.81863 3.16172 8.62447 2.82544L7.92135 1.60758C7.72719 1.2713 7.29716 1.15608 6.96088 1.35023C6.6246 1.54439 6.50938 1.97442 6.70353 2.3107ZM3.52939 5.99953L4.74725 6.70266C5.08353 6.89681 5.51357 6.78159 5.70772 6.44531C5.90188 6.10903 5.78666 5.679 5.45038 5.48484L4.23252 4.78172C3.89624 4.58756 3.46621 4.70278 3.27205 5.03906C3.07789 5.37534 3.19311 5.80538 3.52939 5.99953ZM19.7674 4.78172L18.5495 5.48484C18.2132 5.679 18.098 6.10903 18.2922 6.44531C18.4863 6.78159 18.9163 6.89681 19.2526 6.70266L20.4705 5.99953C20.8068 5.80538 20.922 5.37534 20.7278 5.03906C20.5337 4.70278 20.1036 4.58756 19.7674 4.78172ZM15.6328 3.78591C15.969 3.98006 16.3991 3.86484 16.5932 3.52856L17.2963 2.3107C17.4905 1.97442 17.3753 1.54439 17.039 1.35023C16.7027 1.15608 16.2727 1.2713 16.0785 1.60758L15.3754 2.82544C15.1813 3.16172 15.2965 3.59175 15.6328 3.78591ZM11.9999 4.21875C9.15224 4.21875 6.84369 6.5273 6.84369 9.375C6.84369 11.2075 7.80116 12.8135 9.24205 13.727C9.62839 13.9719 9.90932 14.3415 10.041 14.7656H11.2968V11.0725L10.0965 9.8722C9.82189 9.59761 9.82189 9.15244 10.0965 8.87784C10.3711 8.60325 10.8163 8.60325 11.0908 8.87784L11.9999 9.78689L12.909 8.87784C13.1836 8.60325 13.6288 8.60325 13.9033 8.87784C14.1779 9.15244 14.1779 9.59761 13.9033 9.8722L12.7031 11.0725V14.7656H13.9589C14.0906 14.3415 14.3715 13.9719 14.7578 13.727C16.1987 12.8135 17.1562 11.2075 17.1562 9.375C17.1562 6.5273 14.8476 4.21875 11.9999 4.21875Z" fill="#DA1318"></path></g><defs><clipPath id="clip0_4_964"><rect width="24" height="24" fill="white"></rect></clipPath></defs></svg>