<svg xmlns:xlink="http://www.w3.org/1999/xlink" xmlns="http://www.w3.org/2000/svg" width="24" height="24" viewBox="0 0 24 24" fill="none"><g clip-path="url(#clip0_4_971)" fill="#FFFFFF"><path d="M23.9791 12.4578C23.9716 12.4517 23.9627 12.4476 23.9533 12.4457C23.9438 12.4438 23.934 12.4443 23.9248 12.4471C23.9039 12.4535 23.8847 12.4591 23.8666 12.4644L23.8577 12.467C23.8131 12.4801 23.7745 12.4913 23.7363 12.5066C23.1328 12.7464 22.6577 13.1572 22.2838 13.7624C22.1915 13.912 22.1199 14.0674 22.063 14.2224C22.1564 13.701 22.178 13.4978 22.1946 12.9144C22.1954 12.8899 22.1954 12.865 22.1954 12.8403C22.1954 12.7728 22.1954 12.709 22.2101 12.6508C22.2278 12.5819 22.2633 12.5131 22.2978 12.4466C22.3074 12.4278 22.3171 12.409 22.3251 12.3924C22.3294 12.3882 22.3346 12.385 22.3403 12.3832C22.5129 12.3568 22.6655 12.2835 22.807 12.1592C22.9496 12.0333 23.0668 11.8792 23.1556 11.701C23.474 11.0624 23.6334 10.3565 23.6294 9.60322C23.629 9.53056 23.6205 9.45981 23.6111 9.38287C23.6066 9.34751 23.6025 9.3121 23.5989 9.27664C23.5979 9.26679 23.5944 9.25736 23.5887 9.24923C23.5831 9.24109 23.5755 9.23453 23.5666 9.23014C23.5577 9.22583 23.5478 9.22383 23.5379 9.22433C23.528 9.22482 23.5184 9.22779 23.5099 9.23296C23.4991 9.2397 23.4899 9.24518 23.4816 9.25005C23.4654 9.25967 23.453 9.26719 23.4414 9.27561C23.1697 9.47034 22.9301 9.71277 22.7291 9.99598C22.4012 10.4589 22.2104 10.9823 22.159 11.5581L22.1436 11.3656L22.1418 11.3423C22.1216 11.0906 22.1008 10.8304 22.0838 10.5745C22.0796 10.5097 22.0671 10.4467 22.0551 10.3857C22.0319 10.2684 22.0099 10.1577 22.045 10.0416C22.053 10.0154 22.0598 9.989 22.0665 9.96266C22.0831 9.89739 22.1633 9.79687 22.2864 9.68696L22.2911 9.68281C22.3365 9.64431 22.5698 9.43088 22.7021 9.0087C22.8364 8.57979 22.8263 8.13163 22.8189 7.80438L22.8187 7.79566C22.8088 7.34581 22.7602 7.00683 22.6611 6.69637C22.6476 6.65592 22.6329 6.6159 22.6169 6.57636C22.6086 6.55494 22.6 6.5328 22.5913 6.50964C22.5877 6.50005 22.5817 6.49155 22.5738 6.48502C22.566 6.47848 22.5565 6.47413 22.5464 6.47241L22.5365 6.4715C22.5279 6.47151 22.5193 6.47344 22.5115 6.47715C22.5037 6.48087 22.4968 6.48627 22.4914 6.49298L22.3951 6.61034C21.9333 7.17352 21.7065 7.83404 21.7207 8.57359C21.7234 8.70795 21.7333 8.84206 21.7502 8.97538C21.6345 8.57532 21.4972 8.18187 21.3386 7.7968C21.3353 7.78806 21.3334 7.77884 21.333 7.76949L21.3319 7.71764C21.3303 7.6428 21.3286 7.56538 21.3318 7.48922C21.3323 7.47659 21.3405 7.45391 21.3575 7.43159C21.3817 7.39965 21.4085 7.36843 21.4363 7.33595C21.4837 7.28084 21.5326 7.22394 21.5713 7.15897C21.6961 6.94998 21.7547 6.7031 21.7556 6.38193C21.7573 6.00385 21.699 5.60598 21.572 5.12973C21.5026 4.86991 21.3978 4.53238 21.2026 4.22636C21.1889 4.20561 21.1743 4.18544 21.1588 4.16591C21.1513 4.15631 21.1439 4.14658 21.1367 4.13673C21.1256 4.12187 21.1103 4.11321 21.0857 4.11321C21.076 4.11393 21.0666 4.11706 21.0584 4.12229C21.0502 4.12753 21.0434 4.13473 21.0386 4.14323C20.7937 4.58531 20.6717 5.0576 20.6659 5.58709C20.6612 5.96629 20.7119 6.34414 20.8164 6.7087C20.5971 6.30797 20.3535 5.92107 20.0869 5.55016L20.0808 5.54179C20.0748 5.53379 20.0723 5.52988 20.0727 5.53265C20.0585 5.43374 20.0464 5.33454 20.0365 5.23512C20.0367 5.23386 20.0382 5.22688 20.0506 5.20618C20.0681 5.17635 20.0873 5.14711 20.1077 5.11619C20.1486 5.05399 20.1909 4.98962 20.2179 4.91756C20.2996 4.70003 20.318 4.45333 20.2739 4.16362C20.1771 3.52242 19.8944 2.94504 19.4099 2.3984C19.36 2.34228 19.3049 2.29265 19.2466 2.24019L19.2305 2.22558C19.2077 2.20494 19.1843 2.18383 19.1607 2.16151C19.1532 2.15438 19.1439 2.14937 19.1338 2.14699C19.1237 2.14461 19.1131 2.14495 19.1032 2.14798C19.0935 2.15109 19.0847 2.15668 19.0777 2.16421C19.0708 2.17174 19.0659 2.18095 19.0636 2.19093L19.053 2.23737C19.0458 2.26817 19.0402 2.29247 19.036 2.31689C18.9708 2.7061 18.9756 3.12298 19.0507 3.59148C19.1251 4.05612 19.2735 4.45688 19.5012 4.805C19.1598 4.40268 18.8277 4.06485 18.4806 3.76545C18.4787 3.76241 18.4774 3.7591 18.4765 3.75564C18.5037 3.52194 18.446 3.30177 18.3002 3.08256C18.1087 2.79447 17.8427 2.5749 17.5094 2.43005C17.31 2.34354 17.1033 2.26696 16.901 2.19195C16.8041 2.15598 16.7072 2.12012 16.6074 2.08168C16.5071 2.0418 16.4642 2.0347 16.441 2.05624C16.411 2.08415 16.4182 2.10797 16.4313 2.15128L16.4355 2.16542C16.5578 2.57737 16.7201 2.90317 16.9318 3.16142C17.3204 3.63599 17.7749 3.8771 18.3205 3.89839C18.3396 3.89954 18.3548 3.90483 18.361 3.90964C18.4378 3.96715 18.4943 4.01317 18.5443 4.05877C18.7055 4.20633 18.8609 4.35996 19.0104 4.51932C18.7839 4.37856 18.507 4.31503 18.1951 4.33079C18.0245 4.3394 17.8551 4.36442 17.6912 4.3886L17.685 4.38957C17.6366 4.39667 17.5884 4.4037 17.5403 4.4105C17.435 4.42476 17.3289 4.44341 17.2352 4.45977C17.1972 4.46657 17.1066 4.4872 17.0857 4.53117C17.0785 4.54621 17.0791 4.5627 17.0873 4.57767C17.0945 4.59073 17.1024 4.603 17.1111 4.61419C17.3816 4.9652 17.6902 5.19638 18.0545 5.32084C18.4987 5.4734 18.9067 5.46082 19.2733 5.28138C19.3294 5.25052 19.397 5.23488 19.4742 5.23488C19.5325 5.23488 19.5762 5.24408 19.5907 5.24739C19.6125 5.251 19.6419 5.26315 19.6479 5.27097C19.8806 5.57773 20.0964 5.89695 20.2944 6.22721C20.1237 6.06118 19.901 5.94923 19.5977 5.87632C19.3319 5.81298 19.0601 5.79938 18.7973 5.78615L18.7093 5.7817C18.6269 5.77749 18.5445 5.77225 18.4596 5.7669L18.3173 5.75812C18.3082 5.75812 18.2992 5.76027 18.2911 5.76439C18.283 5.7685 18.276 5.77448 18.2707 5.78182C18.2649 5.78964 18.2611 5.79879 18.2598 5.80844C18.2584 5.81809 18.2595 5.82793 18.263 5.83704C18.2687 5.85256 18.2791 5.87993 18.2844 5.88907C18.5616 6.35264 18.887 6.67327 19.2792 6.86938C19.6627 7.06091 20.0091 7.11156 20.3586 7.02801C20.4031 7.0178 20.4486 7.01279 20.4943 7.01309C20.6429 7.01309 20.7466 7.05845 20.7683 7.10043C20.9619 7.5002 21.1328 7.91055 21.2802 8.32954C21.125 8.11557 20.9079 7.94178 20.6331 7.81178C20.3601 7.68293 20.0759 7.56514 19.7962 7.44922C19.676 7.39953 19.5554 7.34966 19.4352 7.29865C19.4264 7.29475 19.4166 7.29312 19.407 7.29392C19.3973 7.29471 19.388 7.29791 19.3799 7.30321C19.3718 7.30852 19.3651 7.31576 19.3605 7.32429C19.3559 7.33282 19.3535 7.34237 19.3535 7.35207C19.3535 7.38961 19.7523 8.49653 20.3316 8.93273C20.5678 9.11067 20.8589 9.29372 21.2259 9.30232C21.3357 9.30455 21.4493 9.32007 21.5351 9.41758C21.5482 9.4331 21.5656 9.44519 21.5845 9.45163C21.6138 9.46126 21.6219 9.47918 21.6363 9.5403C21.7563 10.046 21.8427 10.559 21.8951 11.0761C21.8785 11.0218 21.8597 10.9681 21.8388 10.9153C21.7091 10.5866 21.4909 10.2989 21.1521 10.01C20.9775 9.86045 20.7946 9.71565 20.6178 9.57555L20.6094 9.56893C20.5288 9.50511 20.4484 9.44152 20.3683 9.37716C20.351 9.36308 20.3338 9.34874 20.3169 9.33415L20.2669 9.29132C20.2581 9.28405 20.2474 9.27946 20.2361 9.27811C20.2247 9.27675 20.2132 9.27869 20.2029 9.28368C20.1927 9.28885 20.1842 9.29695 20.1785 9.30694C20.1728 9.31694 20.1702 9.32839 20.171 9.33986C20.1735 9.37517 20.1754 9.40856 20.1773 9.44062L20.1783 9.4556C20.1822 9.52159 20.186 9.58385 20.1927 9.64533C20.2553 10.2439 20.4333 10.7437 20.7368 11.1732C20.9247 11.4386 21.1942 11.7631 21.6144 11.9166C21.7167 11.9541 21.7909 12.011 21.8703 12.113C21.9453 12.2085 21.9593 12.2958 21.9576 12.4056C21.9507 12.8617 21.918 13.3169 21.8598 13.7693C21.8463 13.6449 21.8176 13.5168 21.7737 13.3837C21.6827 13.1082 21.5408 12.8403 21.34 12.5648C21.1666 12.3262 20.9862 12.0868 20.8117 11.8552L20.8001 11.8397C20.7309 11.748 20.6618 11.6561 20.5945 11.5662C20.5819 11.5478 20.5636 11.5411 20.5531 11.5375C20.5456 11.5338 20.5374 11.5319 20.529 11.5317C20.5207 11.5314 20.5124 11.533 20.5047 11.5363C20.497 11.5395 20.4901 11.5444 20.4845 11.5505C20.4788 11.5567 20.4745 11.564 20.4719 11.5719L20.4699 11.5781C20.467 11.5866 20.4647 11.594 20.4635 11.6015C20.3432 12.3189 20.417 12.9617 20.6891 13.5667C20.8219 13.8626 21.0002 14.1975 21.3144 14.4385C21.4594 14.5506 21.5699 14.7012 21.6334 14.8731C21.6466 14.9097 21.6461 14.9256 21.6446 14.9317C21.5116 15.4826 21.3378 16.014 21.1266 16.5169C21.181 16.2518 21.1773 15.9734 21.1152 15.685C21.0271 15.2762 20.8756 14.88 20.7405 14.5407L20.7 14.4391C20.6356 14.2774 20.5712 14.1156 20.507 13.9538C20.4987 13.9325 20.4785 13.918 20.4516 13.9167C20.4411 13.9168 20.4307 13.9198 20.4218 13.9254C20.4128 13.931 20.4056 13.939 20.4009 13.9484L20.3796 13.9884C20.3703 14.0059 20.3616 14.0222 20.3541 14.039C20.0823 14.6522 19.9905 15.2809 20.0814 15.9074C20.1464 16.3555 20.2565 16.6763 20.4384 16.9477C20.5325 17.088 20.622 17.2443 20.6382 17.4365C20.6421 17.482 20.6403 17.5133 20.62 17.549C20.3937 17.9461 20.1368 18.325 19.8516 18.6822L19.8548 18.6764C20.0575 18.306 20.0636 17.9056 20.0429 17.5626C20.0251 17.2687 19.9914 16.9751 19.959 16.6913L19.9571 16.6749C19.9438 16.5612 19.9312 16.4475 19.9192 16.3337C19.9122 16.2687 19.9047 16.2039 19.8968 16.139L19.8864 16.0504C19.8853 16.0408 19.8819 16.0317 19.8764 16.0238C19.8709 16.016 19.8635 16.0096 19.8549 16.0053C19.8229 15.9885 19.7711 16.0143 19.7152 16.0805C19.3307 16.5352 19.0922 17.0491 19.006 17.6079C18.9167 18.1872 18.9651 18.683 19.1542 19.1236C19.1593 19.1354 19.1592 19.1593 19.1591 19.1673L19.1489 19.4208C19.1474 19.439 19.1378 19.4596 19.1299 19.4672C18.7487 19.8348 18.3257 20.1566 17.8697 20.4259C18.0844 20.2318 18.2388 19.9786 18.3388 19.6577C18.4497 19.3021 18.5066 18.932 18.5618 18.5731L18.5666 18.5411C18.5861 18.415 18.6065 18.2892 18.6273 18.1606L18.6509 18.0152C18.6525 18.0049 18.6514 17.9944 18.6477 17.9847C18.6439 17.9751 18.6376 17.9666 18.6294 17.9601C18.6212 17.9538 18.6115 17.9497 18.6012 17.9482C18.5909 17.9468 18.5804 17.9482 18.5708 17.9521L18.5503 17.9606C18.5284 17.9695 18.5093 17.9775 18.4913 17.9867C17.6339 18.415 17.0694 19.4138 17.1492 20.3616C17.1617 20.5101 17.1481 20.6495 17.1076 20.7877C17.1038 20.8002 17.0916 20.8139 17.0867 20.8162C16.6794 20.9879 16.2922 21.1132 15.9026 21.1992C15.8928 21.2014 15.8838 21.2061 15.8764 21.2128C15.8689 21.2195 15.8633 21.228 15.8602 21.2375C15.8569 21.247 15.8562 21.2572 15.8581 21.2671C15.86 21.277 15.8644 21.2863 15.8709 21.2939C15.9129 21.3435 15.9496 21.3974 15.9805 21.4545C15.9929 21.4776 16.0226 21.4895 16.0448 21.4837C16.3574 21.4128 16.6646 21.3196 16.9639 21.2048C16.9875 21.1953 17.0056 21.1908 17.0225 21.1935C17.0876 21.2022 17.1563 21.2155 17.2327 21.2345C17.2484 21.2383 17.2615 21.2456 17.2617 21.245C17.4285 21.5774 17.7151 21.7891 18.1381 21.8922C18.2302 21.9143 18.3251 21.9306 18.4203 21.9405C18.5199 21.9511 18.631 21.9564 18.7504 21.9564C18.9158 21.9564 19.0338 21.9462 19.0353 21.9461C19.402 21.9051 19.7151 21.8225 19.9925 21.6937C20.1063 21.641 20.236 21.5699 20.3357 21.4431C20.3449 21.4313 20.3493 21.4166 20.3479 21.4017C20.3466 21.3869 20.3396 21.3731 20.3284 21.3633C20.0467 21.1147 19.7598 20.934 19.4512 20.8111C18.9941 20.6294 18.5777 20.5802 18.1695 20.6587C18.1094 20.6705 18.0499 20.6851 17.9911 20.7026C18.3729 20.4744 18.7385 20.2061 19.0837 19.9005C19.0912 19.8942 19.1001 19.8897 19.1097 19.8877C19.1662 19.8783 19.2412 19.8668 19.318 19.8613C19.3251 19.8613 19.3341 19.8647 19.3351 19.865C19.5431 20.0979 19.8111 20.211 20.1545 20.211C20.172 20.211 20.1895 20.2106 20.207 20.21C20.5803 20.198 20.9556 20.0954 21.3226 19.9051C21.5893 19.7659 21.8673 19.6039 22.0928 19.3623C22.1428 19.3086 22.1874 19.2478 22.2268 19.1942L22.2307 19.189C22.2481 19.1654 22.2657 19.1416 22.2839 19.118C22.2888 19.1116 22.2923 19.1043 22.2943 19.0964C22.2963 19.0886 22.2966 19.0805 22.2953 19.0725C22.2938 19.0642 22.2905 19.0564 22.2857 19.0494C22.281 19.0425 22.2748 19.0366 22.2676 19.0322C22.2636 19.0301 22.1682 18.9789 22.081 18.9451C21.4974 18.7196 20.9081 18.6965 20.3461 18.8776C20.162 18.9368 19.9888 19.0256 19.8202 19.1483C20.1321 18.7858 20.4208 18.3884 20.683 17.9608C20.6858 17.9563 20.6933 17.9441 20.6957 17.9419C20.7186 17.9272 20.7421 17.9134 20.7655 17.8998C20.8074 17.8751 20.8508 17.8497 20.8916 17.8194C20.926 17.7937 20.9357 17.793 20.9705 17.8154C21.0197 17.8474 21.0769 17.864 21.1268 17.877C21.4185 17.9517 21.7126 17.9145 22.0379 17.7618C22.3351 17.6224 22.5636 17.4022 22.7663 17.185C23.0612 16.8683 23.2539 16.5825 23.3727 16.2855C23.3977 16.2232 23.4155 16.1588 23.434 16.0914C23.4417 16.0631 23.4495 16.0349 23.4578 16.0071C23.4622 15.9927 23.4609 15.9772 23.4541 15.9638C23.4474 15.9505 23.4357 15.9402 23.4215 15.9352L23.3971 15.9334C23.2769 15.9334 22.2041 15.951 21.5767 16.5598C21.441 16.6912 21.317 16.8342 21.2062 16.9871C21.4544 16.4615 21.6649 15.9075 21.8345 15.3325L21.837 15.3241C21.839 15.317 21.8421 15.3064 21.8441 15.3035L22.0082 15.0781C22.0144 15.0691 22.0151 15.0691 22.0247 15.0691C22.029 15.0691 22.0337 15.0694 22.039 15.0697L22.0741 15.0718C22.1962 15.0794 22.2681 15.0783 22.3272 15.0691C22.5609 15.0322 22.7718 14.9145 22.9719 14.7093C23.44 14.2292 23.7622 13.6303 23.9569 12.8785C23.9777 12.7979 23.9836 12.7166 23.9898 12.6303C23.9926 12.5912 23.9957 12.5509 24.0001 12.5093C24.0011 12.4997 23.9997 12.4899 23.996 12.4809C23.9924 12.472 23.9866 12.464 23.9791 12.4578ZM8.09776 21.1988C7.70849 21.1128 7.32133 20.9875 6.91395 20.8158C6.90908 20.8135 6.89699 20.7998 6.8932 20.7875C6.85259 20.6491 6.839 20.5097 6.85151 20.3612C6.93127 19.4133 6.36683 18.4146 5.50955 17.9864C5.4902 17.9768 5.47048 17.9681 5.45042 17.9601L5.43008 17.9517C5.42053 17.9478 5.4101 17.9464 5.39985 17.9477C5.38959 17.9491 5.37987 17.9531 5.37167 17.9594C5.36338 17.9658 5.35698 17.9744 5.35315 17.9841C5.34932 17.9939 5.34819 18.0045 5.3499 18.0148L5.37336 18.1602C5.39417 18.2888 5.41456 18.4146 5.43411 18.5406L5.43905 18.5736C5.49409 18.9315 5.551 19.3017 5.66186 19.6574C5.7619 19.9783 5.91626 20.2315 6.13096 20.4255C5.67497 20.1562 5.25206 19.8345 4.87087 19.4669C4.86281 19.4592 4.85325 19.4386 4.85186 19.4216L4.84158 19.168C4.84152 19.1589 4.8414 19.135 4.84651 19.1231C5.03558 18.6827 5.08401 18.1869 4.99467 17.6075C4.90853 17.0487 4.66995 16.5349 4.2855 16.0802C4.2405 16.0269 4.2008 16 4.16747 16C4.16012 15.9998 4.15285 16.0014 4.14623 16.0046C4.13754 16.0089 4.13006 16.0153 4.12447 16.0233C4.11888 16.0312 4.11536 16.0404 4.11423 16.0501L4.10395 16.1386C4.09599 16.2034 4.08851 16.2684 4.08151 16.3334C4.06948 16.4471 4.05684 16.5608 4.04361 16.6745L4.04174 16.6909C4.00926 16.9748 3.97557 17.2684 3.95777 17.5623C3.93707 17.9052 3.94321 18.3056 4.14587 18.6761L4.149 18.6818C3.86389 18.3246 3.60702 17.9457 3.38069 17.5487C3.36042 17.5129 3.35867 17.4816 3.36246 17.4361C3.37877 17.2438 3.46816 17.0875 3.5623 16.9474C3.74415 16.6759 3.85424 16.3551 3.91927 15.9071C4.01016 15.2805 3.91836 14.6519 3.64658 14.0387C3.63912 14.0218 3.6304 14.0055 3.62107 13.988L3.59984 13.9479C3.59457 13.9381 3.58663 13.9299 3.57694 13.9244C3.56725 13.9188 3.5562 13.9161 3.54504 13.9165C3.53387 13.9171 3.5231 13.9209 3.51401 13.9274C3.50491 13.9339 3.49788 13.9429 3.49372 13.9533C3.42951 14.1152 3.36516 14.277 3.30068 14.4387L3.2602 14.5403C3.12509 14.8797 2.97355 15.2759 2.88549 15.6846C2.82341 15.9731 2.81962 16.2515 2.87406 16.5165C2.66279 16.0137 2.48912 15.4823 2.35611 14.9314C2.35461 14.9252 2.35413 14.9093 2.3673 14.8727C2.43074 14.7008 2.54129 14.5501 2.68631 14.4381C3.0005 14.1971 3.17875 13.8621 3.31163 13.5663C3.58372 12.9612 3.65753 12.3185 3.53722 11.6011C3.53573 11.5933 3.53364 11.5856 3.53096 11.578L3.52879 11.5715C3.52618 11.5636 3.52189 11.5562 3.51621 11.55C3.51054 11.5439 3.50361 11.539 3.49589 11.5357C3.48844 11.5327 3.48047 11.5312 3.47245 11.5313C3.46443 11.5315 3.45651 11.5332 3.44915 11.5363C3.43712 11.5407 3.41889 11.5474 3.40704 11.5648C3.3384 11.6564 3.2696 11.7479 3.20064 11.8393L3.18903 11.8547C3.01458 12.0864 2.83417 12.3258 2.6608 12.5643C2.45994 12.8399 2.3181 13.1078 2.22708 13.3833C2.18317 13.5164 2.15447 13.6444 2.14094 13.7688C2.08271 13.3165 2.05007 12.8612 2.04318 12.4052C2.0415 12.2954 2.05545 12.2081 2.13047 12.1125C2.20987 12.0106 2.28405 11.9537 2.38631 11.9162C2.8065 11.7626 3.07606 11.4382 3.26393 11.1728C3.56741 10.7433 3.74542 10.2436 3.8081 9.64503C3.81478 9.58343 3.81857 9.52111 3.82248 9.45518L3.82344 9.4402C3.8253 9.40814 3.82729 9.37475 3.82981 9.33938C3.83059 9.32791 3.82796 9.31648 3.82227 9.3065C3.81658 9.29651 3.80807 9.28843 3.79781 9.28325C3.78752 9.27825 3.776 9.27633 3.76464 9.2777C3.75327 9.27908 3.74255 9.2837 3.73375 9.29101L3.68388 9.33372C3.66511 9.34973 3.64905 9.36344 3.63238 9.3768C3.55231 9.4411 3.47195 9.50475 3.3914 9.56857L3.38298 9.57519C3.20618 9.71523 3.0233 9.86003 2.84867 10.0096C2.50981 10.2986 2.29163 10.5862 2.16199 10.915C2.14105 10.9678 2.12227 11.0215 2.10568 11.0758C2.15805 10.5587 2.24448 10.0456 2.36442 9.53988C2.37885 9.47882 2.38691 9.46089 2.41657 9.45115C2.43522 9.44483 2.4526 9.43268 2.4653 9.41764C2.5515 9.31965 2.66501 9.30413 2.77498 9.3019C3.14193 9.2933 3.43297 9.11025 3.6692 8.9323C4.24844 8.49605 4.64727 7.38918 4.64727 7.35165C4.64727 7.34197 4.64486 7.33246 4.64028 7.32394C4.63569 7.31543 4.62906 7.30818 4.62099 7.30286C4.61291 7.29766 4.60369 7.2945 4.59413 7.29365C4.58456 7.29281 4.57493 7.29429 4.56606 7.29799C4.44539 7.34918 4.32472 7.39905 4.19977 7.45072C3.92486 7.56472 3.64062 7.6825 3.36764 7.8113C3.0929 7.9413 2.8758 8.11515 2.7206 8.32906C2.86784 7.91031 3.0386 7.50019 3.23204 7.10068C3.25412 7.05797 3.35783 7.01261 3.50654 7.01261C3.5549 7.01261 3.60176 7.01778 3.64225 7.02753C3.99163 7.11126 4.33807 7.06049 4.72151 6.86889C5.11378 6.67279 5.43923 6.35216 5.71643 5.88841C5.72172 5.87945 5.73213 5.85208 5.73772 5.83674C5.7412 5.82766 5.74234 5.81784 5.74103 5.8082C5.73973 5.79857 5.73603 5.78941 5.73026 5.78158C5.71943 5.76666 5.70211 5.75775 5.68003 5.75775H5.67955L5.54107 5.76648C5.45619 5.77183 5.37378 5.77706 5.29136 5.78127L5.20336 5.78573C4.94059 5.79896 4.66881 5.81256 4.40292 5.8759C4.09967 5.94881 3.87704 6.06076 3.70631 6.22679C3.90425 5.89658 4.12003 5.5774 4.35269 5.27067C4.35883 5.26273 4.38824 5.25058 4.41236 5.24655C4.4244 5.24372 4.46819 5.23452 4.52642 5.23452C4.60366 5.23452 4.67128 5.25022 4.7286 5.28174C5.09285 5.45986 5.50191 5.4731 5.94604 5.32054C6.31035 5.19608 6.61889 4.9649 6.88935 4.61401C6.89813 4.6027 6.90607 4.59037 6.91329 4.57737C6.91733 4.57034 6.91959 4.56243 6.91987 4.55432C6.92014 4.54621 6.91842 4.53816 6.91485 4.53087C6.89392 4.48696 6.80332 4.46633 6.76518 4.45947C6.67158 4.44311 6.56553 4.42446 6.46037 4.4102C6.41219 4.40346 6.36394 4.39642 6.31558 4.38927L6.30938 4.3883C6.14552 4.36412 5.97612 4.3391 5.80546 4.33049C5.49361 4.31455 5.21671 4.3782 4.9901 4.51908C5.13961 4.35971 5.29511 4.20606 5.45625 4.05847C5.50624 4.01287 5.56279 3.96691 5.63985 3.90922C5.6458 3.90465 5.66096 3.8993 5.67955 3.89821C6.22571 3.87686 6.68018 3.63575 7.06879 3.16124C7.28048 2.90293 7.44278 2.57713 7.56508 2.16518L7.56929 2.15104C7.58234 2.10773 7.58956 2.08391 7.55954 2.056C7.53638 2.03446 7.4956 2.04084 7.3896 2.08283C7.29335 2.11982 7.1965 2.15574 7.09706 2.19261C6.89729 2.26666 6.69065 2.34324 6.49123 2.42975C6.15797 2.5746 5.89184 2.79417 5.70036 3.08226C5.55455 3.30147 5.49692 3.5217 5.52405 3.75438C5.52345 3.75764 5.5225 3.76083 5.52122 3.76388C5.17334 4.06424 4.8408 4.40238 4.49935 4.80482C4.72704 4.4567 4.87545 4.05588 4.94992 3.59124C5.02499 3.1228 5.02975 2.70586 4.96454 2.31665C4.96039 2.29229 4.95479 2.26793 4.94763 2.23743L4.93699 2.19045C4.93459 2.18049 4.92966 2.17132 4.92267 2.16384C4.91568 2.15635 4.90687 2.15081 4.8971 2.14774C4.88723 2.14485 4.87678 2.14457 4.86678 2.14693C4.85677 2.14929 4.84755 2.15421 4.84001 2.16121C4.81619 2.18365 4.79285 2.20482 4.77005 2.2254L4.75399 2.23989C4.69564 2.29247 4.64054 2.3421 4.59067 2.39822C4.10611 2.94486 3.8235 3.52224 3.72671 4.16338C3.68261 4.45315 3.7009 4.69985 3.78265 4.91738C3.80972 4.98944 3.85195 5.05381 3.894 5.11769C3.91325 5.14687 3.9325 5.17617 3.95013 5.20624C3.96312 5.22784 3.9642 5.23343 3.96414 5.23241C3.9545 5.33128 3.94283 5.42993 3.92913 5.52832C3.92847 5.52976 3.9263 5.53313 3.91939 5.54228L3.91379 5.55004C3.64719 5.92095 3.40358 6.30785 3.18434 6.70858C3.28883 6.34403 3.33953 5.96617 3.33485 5.58697C3.32896 5.05742 3.20702 4.58513 2.96194 4.14293C2.95226 4.12572 2.93469 4.11453 2.91009 4.11285C2.90104 4.11296 2.89214 4.11518 2.8841 4.11934C2.87606 4.1235 2.8691 4.12947 2.86377 4.13679C2.85643 4.14702 2.84897 4.15664 2.84187 4.16579C2.82605 4.18624 2.81125 4.20561 2.79802 4.2263C2.60287 4.53232 2.4982 4.86973 2.42872 5.12955C2.30173 5.60604 2.24338 6.00391 2.24507 6.38175C2.24603 6.70292 2.30456 6.9498 2.42932 7.15873C2.46812 7.22375 2.51697 7.28066 2.56606 7.33793C2.59211 7.36831 2.61888 7.39953 2.64312 7.43153C2.66008 7.45379 2.66826 7.47647 2.66874 7.4891C2.67193 7.56526 2.67025 7.64268 2.66862 7.71751L2.66748 7.76925C2.66722 7.77846 2.66543 7.78757 2.66219 7.7962C2.50357 8.18143 2.36611 8.57504 2.25042 8.97526C2.26732 8.84194 2.27716 8.70783 2.2799 8.57347C2.29409 7.83392 2.06725 7.17346 1.60549 6.61022L1.50924 6.49298C1.50381 6.48622 1.49693 6.48077 1.48911 6.47704C1.48129 6.4733 1.47273 6.47137 1.46406 6.47138L1.45444 6.47223C1.44433 6.47391 1.43484 6.47823 1.42693 6.48475C1.41902 6.49126 1.41297 6.49974 1.40938 6.50934C1.4006 6.53274 1.39199 6.55482 1.38363 6.57618C1.36771 6.61577 1.35297 6.65584 1.33942 6.69631C1.24034 7.00665 1.19174 7.34569 1.18187 7.79542L1.18169 7.8042C1.17429 8.13139 1.16412 8.57961 1.29851 9.00852C1.43079 9.43076 1.66408 9.64413 1.70932 9.68245L1.71413 9.68678C1.83727 9.79668 1.91746 9.89721 1.93406 9.96247C1.94074 9.98882 1.94753 10.0152 1.95548 10.0413C1.99061 10.1575 1.96865 10.2682 1.94495 10.3877C1.93316 10.4481 1.92089 10.5104 1.91661 10.5743C1.89965 10.8302 1.87884 11.0905 1.85868 11.3421L1.85688 11.3654L1.84142 11.5579C1.79005 10.9821 1.59935 10.4587 1.27126 9.9958C1.07034 9.71259 0.830799 9.47028 0.559135 9.27543C0.547405 9.26701 0.535073 9.25949 0.51859 9.24969C0.508987 9.24412 0.499481 9.23838 0.490076 9.23248C0.481624 9.22749 0.472075 9.22465 0.462268 9.22421C0.452461 9.22377 0.442696 9.22574 0.43383 9.22996C0.42494 9.23434 0.417312 9.24092 0.411661 9.24906C0.40601 9.25721 0.402523 9.26665 0.401527 9.27652C0.397781 9.31264 0.39363 9.34871 0.389074 9.38474C0.379991 9.45963 0.371388 9.53037 0.371027 9.60304C0.366997 10.3563 0.52635 11.0622 0.844816 11.7008C0.933546 11.879 1.05079 12.0331 1.19342 12.1591C1.33485 12.2833 1.48746 12.3566 1.65969 12.3829C1.66473 12.3846 1.66951 12.3871 1.67389 12.3901C1.68321 12.4088 1.69289 12.4276 1.70258 12.4464C1.73699 12.5129 1.77254 12.5817 1.79023 12.6506C1.80497 12.7089 1.80497 12.7726 1.80497 12.8401C1.80497 12.8648 1.80497 12.8897 1.80575 12.9141C1.82229 13.4977 1.84401 13.7009 1.93737 14.2222C1.8804 14.0672 1.80888 13.9118 1.71654 13.7622C1.34261 13.157 0.867555 12.7462 0.264251 12.5065C0.225871 12.491 0.187371 12.4799 0.142736 12.4669L0.133833 12.4642C0.115726 12.4589 0.0965359 12.4533 0.0760227 12.447C0.0667644 12.4441 0.0569181 12.4435 0.047377 12.4453C0.0378359 12.4472 0.0289019 12.4513 0.0213854 12.4575C0.013869 12.4637 0.00800793 12.4716 0.00433397 12.4806C0.00066002 12.4896 -0.000710579 12.4993 0.000346511 12.509C0.00479805 12.5504 0.007866 12.5906 0.0106933 12.6299C0.0168894 12.7161 0.0227245 12.7974 0.0435986 12.8779C0.238263 13.6298 0.560459 14.2286 1.02853 14.7087C1.22867 14.914 1.43958 15.0316 1.67328 15.0685C1.73224 15.0777 1.8043 15.0789 1.9263 15.0713L1.96143 15.0692C1.96678 15.0689 1.97148 15.0686 1.97575 15.0686C1.98537 15.0686 1.98615 15.0686 1.99283 15.0784L2.15628 15.3029C2.15838 15.3058 2.16145 15.3165 2.16355 15.3238L2.16596 15.3319C2.3356 15.907 2.54609 16.4609 2.79429 16.9866C2.68345 16.8336 2.55946 16.6906 2.42373 16.5592C1.7963 15.9505 0.723602 15.9328 0.60335 15.9328L0.588371 15.933L0.578927 15.9347C0.564792 15.9396 0.553117 15.9499 0.546344 15.9632C0.539572 15.9766 0.538228 15.992 0.542592 16.0063C0.550954 16.0343 0.558774 16.0626 0.567737 16.0958C0.584882 16.1582 0.602688 16.2226 0.627653 16.2849C0.746521 16.582 0.939201 16.8677 1.23415 17.1845C1.43681 17.4017 1.66528 17.6219 1.96239 17.7612C2.28778 17.9139 2.58158 17.9512 2.87376 17.8764C2.92344 17.8634 2.98059 17.8468 3.02974 17.8149C3.06475 17.7925 3.07432 17.7932 3.10873 17.8188C3.14951 17.8492 3.19288 17.8746 3.23499 17.8993C3.25827 17.9129 3.28173 17.9267 3.30363 17.9405C3.30712 17.9435 3.31458 17.9557 3.31735 17.9602C3.57951 18.3878 3.86831 18.7852 4.18016 19.1477C4.01149 19.025 3.8383 18.9362 3.65434 18.877C3.09218 18.6959 2.50295 18.719 1.91938 18.9446C1.83228 18.9783 1.73681 19.0295 1.73043 19.0331C1.72376 19.0375 1.71807 19.0433 1.71371 19.05C1.70935 19.0567 1.70642 19.0642 1.7051 19.0721C1.70378 19.08 1.7041 19.0881 1.70604 19.0958C1.70797 19.1036 1.71148 19.1109 1.71636 19.1172C1.73458 19.141 1.75221 19.1648 1.76965 19.1884L1.7735 19.1936C1.81291 19.2472 1.85754 19.3079 1.90759 19.3617C2.133 19.6034 2.41098 19.7654 2.67783 19.9044C3.04478 20.0948 3.42003 20.1974 3.79324 20.2094C3.81081 20.21 3.82837 20.2104 3.84588 20.2104C4.18919 20.2104 4.45718 20.0972 4.66376 19.8658C4.6688 19.8629 4.67439 19.8611 4.68018 19.8605C4.7591 19.8662 4.83412 19.8777 4.89018 19.887C4.89998 19.889 4.90911 19.8935 4.91671 19.9C5.26183 20.2055 5.62733 20.4737 6.00914 20.7019C5.95037 20.6845 5.89081 20.6698 5.83066 20.6579C5.42262 20.5795 5.00622 20.6287 4.54898 20.8103C4.2405 20.9333 3.95362 21.1139 3.67191 21.3626C3.66072 21.3724 3.65373 21.3862 3.65236 21.401C3.651 21.4158 3.65536 21.4306 3.66457 21.4423C3.76424 21.5692 3.89394 21.6402 4.0077 21.6929C4.28513 21.8219 4.59831 21.9044 4.96544 21.9454C4.96652 21.9455 5.08449 21.9557 5.24992 21.9557C5.36933 21.9557 5.48043 21.9504 5.57999 21.9398C5.67501 21.9299 5.76928 21.9137 5.86218 21.8914C6.2852 21.7884 6.57184 21.5767 6.73607 21.2479C6.73902 21.2451 6.75165 21.2377 6.76765 21.2338C6.83696 21.2163 6.90719 21.2026 6.97802 21.1928C6.99342 21.1903 7.01261 21.1945 7.03679 21.2042C7.33583 21.3189 7.64269 21.412 7.95501 21.4829C7.96755 21.4859 7.98073 21.4847 7.99249 21.4794C8.00425 21.4741 8.01392 21.465 8.01998 21.4536C8.05083 21.3965 8.08754 21.3427 8.12952 21.2931C8.136 21.2855 8.14039 21.2763 8.14228 21.2664C8.14416 21.2566 8.14347 21.2464 8.14028 21.237C8.13708 21.2275 8.13149 21.219 8.12404 21.2123C8.11659 21.2056 8.10754 21.2009 8.09776 21.1988Z" fill="#DA1318"></path><path d="M14.8532 13.4353L17.2703 11.0792C17.3105 11.04 17.3389 10.9904 17.3524 10.9359C17.3658 10.8814 17.3638 10.8242 17.3464 10.7708C17.3291 10.7175 17.2972 10.67 17.2542 10.6338C17.2113 10.5976 17.1592 10.5742 17.1036 10.5661L13.7636 10.0811L12.2696 7.05445C12.2448 7.00411 12.2064 6.96172 12.1587 6.93207C12.111 6.90243 12.056 6.88672 11.9999 6.88672C11.9438 6.88672 11.8888 6.90243 11.8411 6.93207C11.7935 6.96172 11.7551 7.00411 11.7302 7.05445L10.2368 10.0811L6.89623 10.5661C6.84068 10.5742 6.7885 10.5976 6.74558 10.6338C6.70267 10.67 6.67073 10.7175 6.65339 10.7708C6.63605 10.8242 6.63399 10.8814 6.64744 10.9359C6.6609 10.9904 6.68933 11.04 6.72953 11.0792L9.1466 13.4353L8.57632 16.7618C8.56683 16.8171 8.573 16.874 8.59415 16.926C8.61529 16.9779 8.65056 17.023 8.69597 17.0559C8.74136 17.0889 8.79508 17.1086 8.85106 17.1126C8.90703 17.1167 8.96302 17.105 9.01269 17.0788L12 15.5085L14.9874 17.0788C15.037 17.105 15.093 17.1167 15.149 17.1126C15.205 17.1086 15.2587 17.0889 15.304 17.0559C15.3495 17.023 15.3847 16.9779 15.4059 16.926C15.427 16.874 15.4332 16.8171 15.4237 16.7618L14.8532 13.4353Z" fill="#FFFFFF"></path></g><defs><clipPath id="clip0_4_971"><rect width="24" height="24" fill="white"></rect></clipPath></defs></svg>