<svg xmlns:xlink="http://www.w3.org/1999/xlink" xmlns="http://www.w3.org/2000/svg" width="88" height="88" viewBox="0 0 88 88" fill="none"><rect width="88" height="88" rx="44" fill="#FDF42C"></rect><path d="M54.5505 33.8965H43.4355V22.7815L54.5505 33.8965ZM46.4805 66.8965H23.9355C23.1105 66.8965 22.4355 66.2215 22.4355 65.3965V23.3965C22.4355 22.5715 23.1105 21.8965 23.9355 21.8965H40.4355V35.3965C40.4355 36.2215 41.1105 36.8965 41.9355 36.8965H55.4355V39.8965C47.1705 39.8965 40.4355 46.6315 40.4355 54.8965C40.4355 59.8015 42.8205 64.1515 46.4805 66.8965ZM26.9355 29.3965C26.9355 30.2215 27.6105 30.8965 28.4355 30.8965H34.4355C35.2605 30.8965 35.9355 30.2215 35.9355 29.3965C35.9355 28.5715 35.2605 27.8965 34.4355 27.8965H28.4355C27.6105 27.8965 26.9355 28.5715 26.9355 29.3965ZM26.9355 35.3965C26.9355 36.2215 27.6105 36.8965 28.4355 36.8965H34.4355C35.2605 36.8965 35.9355 36.2215 35.9355 35.3965C35.9355 34.5715 35.2605 33.8965 34.4355 33.8965H28.4355C27.6105 33.8965 26.9355 34.5715 26.9355 35.3965ZM32.9355 59.3965C32.9355 58.5715 32.2605 57.8965 31.4355 57.8965H28.4355C27.6105 57.8965 26.9355 58.5715 26.9355 59.3965C26.9355 60.2215 27.6105 60.8965 28.4355 60.8965H31.4355C32.2605 60.8965 32.9355 60.2215 32.9355 59.3965ZM40.4355 41.3965C40.4355 40.5715 39.7605 39.8965 38.9355 39.8965H28.4355C27.6105 39.8965 26.9355 40.5715 26.9355 41.3965C26.9355 42.2215 27.6105 42.8965 28.4355 42.8965H38.9355C39.7605 42.8965 40.4355 42.2215 40.4355 41.3965ZM67.4355 54.8965C67.4355 61.5265 62.0655 66.8965 55.4355 66.8965C48.8055 66.8965 43.4355 61.5265 43.4355 54.8965C43.4355 48.2665 48.8055 42.8965 55.4355 42.8965C62.0655 42.8965 67.4355 48.2665 67.4355 54.8965ZM54.6855 52.6465C54.6855 52.2265 55.0155 51.8965 55.4355 51.8965H57.6855C58.5105 51.8965 59.1855 51.2215 59.1855 50.3965C59.1855 49.5715 58.5105 48.8965 57.6855 48.8965H56.9355C56.9355 48.0715 56.2605 47.3965 55.4355 47.3965C54.6105 47.3965 53.9355 48.0715 53.9355 48.8965V49.2115C52.6155 49.7965 51.6855 51.1165 51.6855 52.6465C51.6855 53.1389 51.7825 53.6266 51.971 54.0815C52.1595 54.5365 52.4357 54.9499 52.7839 55.2981C53.1321 55.6464 53.5455 55.9226 54.0005 56.111C54.4555 56.2995 54.9431 56.3965 55.4355 56.3965C55.8555 56.3965 56.1855 56.7265 56.1855 57.1465C56.1855 57.5665 55.8555 57.8965 55.4355 57.8965H53.1855C52.3605 57.8965 51.6855 58.5715 51.6855 59.3965C51.6855 60.2215 52.3605 60.8965 53.1855 60.8965H53.9355C53.9355 61.7215 54.6105 62.3965 55.4355 62.3965C56.2605 62.3965 56.9355 61.7215 56.9355 60.8965V60.5815C58.2555 59.9965 59.1855 58.6765 59.1855 57.1465C59.1855 56.1519 58.7905 55.1981 58.0872 54.4948C57.3839 53.7916 56.4301 53.3965 55.4355 53.3965C55.0155 53.3965 54.6855 53.0665 54.6855 52.6465Z" fill="#3B7503"></path></svg>