<svg xmlns:xlink="http://www.w3.org/1999/xlink" xmlns="http://www.w3.org/2000/svg" width="88" height="88" viewBox="0 0 88 88" fill="none"><rect width="88" height="88" rx="44" fill="#FFFFFF"></rect><g clip-path="url(#clip0_131_1501)" fill="none"><path d="M45.3402 62.3594H43.447C43.3351 62.3594 43.2385 62.4375 43.2147 62.5469L42.6268 65.2671C42.5245 65.7467 42.8305 66.2215 43.3088 66.3254L43.8433 66.4421C43.9038 66.4548 43.9656 66.4613 44.0271 66.4613C44.4441 66.4613 44.8111 66.1663 44.8998 65.7596L45.5725 62.6474C45.58 62.6127 45.5796 62.5768 45.5714 62.5423C45.5632 62.5078 45.5474 62.4756 45.5251 62.448C45.5028 62.4203 45.4747 62.398 45.4427 62.3827C45.4107 62.3674 45.3756 62.3594 45.3402 62.3594ZM37.9498 57.3896C37.9945 57.4341 38.055 57.4592 38.118 57.4592H60.8502C60.8893 57.4592 60.9277 57.4495 60.9622 57.431C60.9967 57.4126 61.0261 57.3859 61.0478 57.3534C61.0695 57.3209 61.0828 57.2835 61.0866 57.2446C61.0904 57.2057 61.0846 57.1664 61.0696 57.1303C60.909 56.7443 60.6742 56.3947 60.3716 56.0906C59.7643 55.4846 58.9581 55.1509 58.1018 55.1509H39.1357C39.0852 55.1512 39.0352 55.1415 38.9884 55.1223C38.9417 55.1032 38.8993 55.0749 38.8635 55.0393L28.4949 44.6744C27.8848 44.067 27.0778 43.7324 26.2228 43.7324C25.7988 43.7324 25.3875 43.8133 25.0006 43.9729C24.9645 43.9878 24.9325 44.0114 24.9077 44.0416C24.8828 44.0718 24.8658 44.1077 24.8581 44.146C24.8505 44.1844 24.8524 44.224 24.8637 44.2615C24.8751 44.2989 24.8955 44.333 24.9231 44.3606L37.9498 57.3896ZM61.6908 62.429C61.6462 62.3845 61.5858 62.3594 61.5228 62.3594H57.4353C57.3883 62.3594 57.3423 62.3733 57.3032 62.3994C57.2641 62.4255 57.2336 62.4626 57.2156 62.506C57.1976 62.5495 57.193 62.5973 57.2022 62.6434C57.2114 62.6895 57.234 62.7318 57.2673 62.765L60.4695 65.9672C60.6253 66.1241 60.8107 66.2484 61.0149 66.3331C61.219 66.4178 61.438 66.4612 61.6591 66.4607C62.1073 66.4607 62.5302 66.2856 62.8501 65.9671C63.5046 65.3112 63.5046 64.2441 62.8498 63.5881L61.6908 62.429Z" fill="#1D1D1D"></path><path d="M61.6609 58.2286H37.8609C37.8104 58.2287 37.7603 58.2188 37.7136 58.1994C37.6669 58.18 37.6245 58.1516 37.5889 58.1157L23.8082 44.3325C23.6516 44.1749 23.4652 44.0499 23.26 43.9648C23.0547 43.8796 22.8346 43.8361 22.6124 43.8365C22.1711 43.8365 21.7485 44.0135 21.4224 44.3355C21.1085 44.6465 20.9355 45.0662 20.9355 45.5171C20.9355 45.6928 20.9601 45.8548 21.0092 46.0076C21.0888 46.273 21.2326 46.5148 21.4278 46.7116L35.1851 60.4665L35.8182 61.0958C36.1278 61.4113 36.5624 61.5921 37.0106 61.5921H61.6609C61.6657 61.5921 61.7545 61.5868 61.7545 61.5868C62.4539 61.5503 63.0637 61.0748 63.2727 60.401C63.32 60.2431 63.344 60.0783 63.344 59.9116C63.344 59.4644 63.1701 59.044 62.8562 58.7302C62.7001 58.5716 62.5141 58.4456 62.3089 58.3595C62.1037 58.2734 61.8834 58.2289 61.6609 58.2286ZM35.9036 62.096C35.6696 61.9796 35.4564 61.8252 35.2729 61.6391L33.8262 60.1949C33.8042 60.1728 33.778 60.1553 33.7492 60.1434C33.7204 60.1315 33.6895 60.1254 33.6583 60.1255C33.5975 60.1255 33.5367 60.1486 33.4903 60.1951L30.0955 63.5887C29.9386 63.7445 29.8143 63.9298 29.7295 64.134C29.6448 64.3383 29.6014 64.5572 29.6019 64.7783C29.6019 65.228 29.7774 65.65 30.0954 65.9666C30.2514 66.1234 30.437 66.2477 30.6415 66.3322C30.8459 66.4168 31.065 66.46 31.2863 66.4593H31.2864C31.7358 66.4593 32.1582 66.2848 32.4759 65.9678L35.9658 62.4767C35.9925 62.4501 36.0124 62.4175 36.024 62.3816C36.0356 62.3457 36.0385 62.3076 36.0324 62.2704C36.0263 62.2332 36.0115 62.198 35.9891 62.1676C35.9667 62.1373 35.9374 62.1127 35.9036 62.096ZM32.7156 43.1811C33.0955 43.2632 33.4831 43.3049 33.8718 43.3054C34.7305 43.3054 35.5633 43.0953 36.2817 42.6977C36.2889 42.6946 36.296 42.691 36.3029 42.6872C37.1267 42.2257 37.7393 41.5537 38.0743 40.7439C38.0876 40.7117 38.0936 40.677 38.092 40.6423C38.0905 40.6075 38.0812 40.5735 38.0651 40.5427C38.0489 40.5119 38.0262 40.485 37.9985 40.4639C37.9708 40.4429 37.9389 40.4281 37.9049 40.4207L29.1259 38.5239C29.0919 38.5166 29.0567 38.5168 29.0227 38.5246C28.9888 38.5323 28.957 38.5475 28.9296 38.5689C28.9021 38.5903 28.8797 38.6174 28.864 38.6484C28.8482 38.6794 28.8394 38.7135 28.8383 38.7483C28.8091 39.6219 29.09 40.487 29.6511 41.2508C30.3701 42.2235 31.4583 42.9089 32.7156 43.1811ZM52.9356 47.5474C53.3145 47.6295 53.7011 47.6711 54.0888 47.6714H54.0889C55.9973 47.6714 57.6489 46.6669 58.2967 45.1121C58.3101 45.08 58.3163 45.0452 58.3148 45.0104C58.3133 44.9756 58.3042 44.9415 58.288 44.9106C58.2719 44.8797 58.2491 44.8527 58.2214 44.8316C58.1936 44.8105 58.1616 44.7957 58.1275 44.7884L49.3447 42.8915C49.3107 42.8843 49.2754 42.8846 49.2415 42.8924C49.2076 42.9002 49.1758 42.9154 49.1484 42.9368C49.1209 42.9582 49.0986 42.9854 49.0828 43.0165C49.067 43.0475 49.0582 43.0816 49.0571 43.1164C49.0291 43.9939 49.3103 44.8581 49.8697 45.6155C50.5859 46.5887 51.6746 47.2749 52.9356 47.5474Z" fill="#1D1D1D"></path><path d="M45.2729 54.3822H47.1647C47.2765 54.3822 47.3733 54.3041 47.397 54.1948L49.1538 46.0646C49.1606 46.0334 49.1609 46.001 49.1549 45.9696C49.1488 45.9382 49.1365 45.9083 49.1187 45.8818C48.8433 45.4722 48.6333 45.0379 48.4945 44.5909C48.4821 44.5507 48.4592 44.5145 48.4282 44.4861C48.3971 44.4576 48.3591 44.4379 48.318 44.429C48.2768 44.4201 48.234 44.4223 48.194 44.4353C48.154 44.4483 48.1181 44.4718 48.0901 44.5032C47.7785 44.8528 47.4078 45.1615 46.9884 45.4208C46.9336 45.4548 46.8948 45.5098 46.8811 45.5729L45.0406 54.0943C45.0331 54.129 45.0334 54.1649 45.0416 54.1994C45.0498 54.234 45.0656 54.2662 45.0879 54.2938C45.1102 54.3214 45.1384 54.3437 45.1704 54.359C45.2024 54.3743 45.2374 54.3822 45.2729 54.3822ZM48.1845 42.9271C48.1978 42.895 48.2038 42.8603 48.2023 42.8255C48.2007 42.7907 48.1915 42.7567 48.1754 42.7259C48.1592 42.695 48.1365 42.6681 48.1088 42.647C48.0811 42.6259 48.0492 42.6111 48.0151 42.6037L39.2349 40.7069C39.2008 40.6995 39.1656 40.6998 39.1316 40.7076C39.0977 40.7154 39.0659 40.7305 39.0384 40.752C38.9829 40.7954 38.9494 40.8612 38.9472 40.9316C38.9191 41.8085 39.2003 42.6732 39.7599 43.4321C40.1166 43.917 40.5649 44.331 41.0927 44.6628C41.6183 44.9933 42.2014 45.2291 42.8255 45.364C43.2065 45.4472 43.5953 45.4894 43.9853 45.4898C44.8501 45.4898 45.6903 45.2756 46.4145 44.8703C47.2356 44.4107 47.8477 43.7388 48.1845 42.9271ZM51.6985 24.7615C51.9997 24.8164 52.272 24.8702 52.5306 24.9262C52.8119 24.9878 53.0898 25.0529 53.3566 25.1196C53.3911 25.1283 53.427 25.1291 53.4619 25.122C53.4967 25.1149 53.5295 25.1001 53.5578 25.0786C53.5862 25.0572 53.6093 25.0296 53.6256 24.998C53.6418 24.9664 53.6508 24.9316 53.6518 24.896C53.6795 23.9479 53.4743 22.7473 53.2294 22.4257C53.1952 22.3809 53.1463 22.3496 53.0912 22.3375C53.0361 22.3255 52.9786 22.3334 52.9288 22.3598C52.573 22.5488 51.8893 23.5578 51.5219 24.4361C51.5082 24.4689 51.502 24.5043 51.5038 24.5398C51.5055 24.5753 51.5153 24.6099 51.5322 24.6411C51.5492 24.6724 51.5729 24.6994 51.6017 24.7202C51.6305 24.7411 51.6636 24.7552 51.6985 24.7615ZM65.3635 33.6254C63.2281 30.8569 60.2989 28.6111 56.8924 27.1306C56.8432 27.1091 56.7882 27.1049 56.7364 27.1187C56.6845 27.1325 56.6388 27.1634 56.6068 27.2065C56.5748 27.2495 56.5582 27.3021 56.5599 27.3558C56.5616 27.4094 56.5814 27.4609 56.616 27.5018C57.5579 28.6176 58.3211 30.038 58.8841 31.7238C60.0567 35.2436 60.2289 39.6149 59.3691 44.0322C59.3572 44.0932 59.3697 44.1565 59.4039 44.2084C59.4382 44.2603 59.4914 44.2968 59.5522 44.3099L68.4426 46.2293C68.474 46.236 68.5063 46.2363 68.5378 46.2302C68.5693 46.2241 68.5992 46.2117 68.6258 46.1938C68.6523 46.1759 68.675 46.1527 68.6924 46.1258C68.7098 46.0989 68.7216 46.0687 68.727 46.0372C69.4547 41.7875 68.2602 37.3796 65.3635 33.6254Z" fill="#1D1D1D"></path><path d="M58.3877 44.0516C58.4428 44.0515 58.4963 44.0323 58.5388 43.9972C58.5814 43.9621 58.6104 43.9133 58.621 43.8592C59.4514 39.5811 59.2856 35.3583 58.1543 31.969C57.0934 28.7825 55.2607 26.6096 52.9938 25.8507C52.9621 25.8401 52.9286 25.8364 52.8954 25.8397C52.8621 25.843 52.83 25.8532 52.801 25.8697C52.772 25.8862 52.7468 25.9087 52.727 25.9356C52.7072 25.9625 52.6933 25.9933 52.6862 26.0259L49.2714 41.8458C49.2648 41.8763 49.2643 41.9078 49.2699 41.9385C49.2755 41.9692 49.2871 41.9985 49.304 42.0247C49.3209 42.051 49.3428 42.0736 49.3685 42.0913C49.3942 42.1091 49.4231 42.1216 49.4536 42.1282L58.3376 44.0463C58.3542 44.0498 58.371 44.0516 58.3877 44.0516ZM68.2384 46.9714L59.4569 45.0746C59.4228 45.0672 59.3876 45.0673 59.3536 45.0751C59.3196 45.0829 59.2878 45.098 59.2603 45.1195C59.2328 45.141 59.2105 45.1682 59.1947 45.1993C59.179 45.2304 59.1703 45.2646 59.1692 45.2994C59.1036 47.3685 60.7343 49.2326 63.0466 49.7318C63.4255 49.8138 63.8121 49.8554 64.1998 49.8557C66.1092 49.8557 67.7611 48.8506 68.4077 47.295C68.421 47.2628 68.4271 47.2281 68.4256 47.1933C68.424 47.1585 68.4148 47.1245 68.3987 47.0936C68.3825 47.0628 68.3598 47.0358 68.3321 47.0147C68.3044 46.9936 68.2724 46.9788 68.2384 46.9714ZM43.9866 29.6129C41.8058 32.2083 40.0955 35.776 39.1705 39.6588C39.1632 39.6896 39.1621 39.7215 39.1673 39.7527C39.1724 39.7839 39.1838 39.8138 39.2006 39.8405C39.2175 39.8673 39.2395 39.8904 39.2654 39.9085C39.2913 39.9267 39.3206 39.9394 39.3515 39.9461L48.2368 41.8654C48.2673 41.872 48.2988 41.8725 48.3295 41.8669C48.3602 41.8613 48.3895 41.8497 48.4157 41.8328C48.4419 41.8159 48.4645 41.794 48.4823 41.7683C48.5 41.7426 48.5125 41.7137 48.5191 41.6832L51.9366 25.8622C51.9437 25.8295 51.9437 25.7956 51.9368 25.7629C51.9299 25.7302 51.9161 25.6992 51.8964 25.6722C51.8767 25.6451 51.8515 25.6226 51.8225 25.6059C51.7935 25.5893 51.7612 25.579 51.7279 25.5756C51.5235 25.5551 51.3182 25.5447 51.1128 25.5444C48.7219 25.5444 46.1911 26.9894 43.9866 29.6129Z" fill="#1D1D1D"></path><path d="M29.246 37.7629L38.135 39.6835C38.1958 39.6966 38.2593 39.6853 38.3119 39.6522C38.3645 39.619 38.4021 39.5665 38.4164 39.506C39.4546 35.1294 41.4162 31.2195 43.94 28.4966C45.1488 27.1921 46.4284 26.2129 47.743 25.5861C47.7914 25.5632 47.8307 25.5244 47.8544 25.4763C47.878 25.4281 47.8847 25.3734 47.8732 25.3209C47.8618 25.2685 47.8329 25.2215 47.7914 25.1876C47.7498 25.1537 47.698 25.1348 47.6443 25.1341C47.5254 25.1323 47.406 25.1313 47.2873 25.1313C43.7039 25.1313 40.2338 25.9686 37.2522 27.5526C33.0641 29.7783 30.157 33.3006 29.0663 37.4705C29.0582 37.5015 29.0565 37.5338 29.0612 37.5656C29.0659 37.5973 29.077 37.6277 29.0938 37.655C29.1106 37.6823 29.1327 37.706 29.1589 37.7245C29.1851 37.7431 29.2147 37.7561 29.246 37.7629Z" fill="#1D1D1D"></path></g><defs><clipPath id="clip0_131_1501"><rect width="48" height="48" fill="white" transform="translate(20.9355 20.3965)"></rect></clipPath></defs></svg>