<svg xmlns:xlink="http://www.w3.org/1999/xlink" xmlns="http://www.w3.org/2000/svg" width="88" height="88" viewBox="0 0 88 88" fill="none"><rect width="88" height="88" rx="44" fill="#FFFFFF"></rect><path d="M41.8305 61.1815H29.1855C28.7877 61.1815 28.4062 61.0234 28.1249 60.7421C27.8436 60.4608 27.6855 60.0793 27.6855 59.6815C27.6855 59.2837 27.8436 58.9021 28.1249 58.6208C28.4062 58.3395 28.7877 58.1815 29.1855 58.1815H40.7955C40.5533 57.1034 40.4326 56.0015 40.4355 54.8965C40.4332 53.6409 40.5946 52.3904 40.9155 51.1765H29.1855C28.7877 51.1765 28.4062 51.0184 28.1249 50.7371C27.8436 50.4558 27.6855 50.0743 27.6855 49.6765C27.6855 49.2787 27.8436 48.8971 28.1249 48.6158C28.4062 48.3345 28.7877 48.1765 29.1855 48.1765H42.0405C43.613 45.0504 46.2289 42.5724 49.4355 41.1715H29.1855C28.7877 41.1715 28.4062 41.0134 28.1249 40.7321C27.8436 40.4508 27.6855 40.0693 27.6855 39.6715C27.6855 39.2737 27.8436 38.8921 28.1249 38.6108C28.4062 38.3295 28.7877 38.1715 29.1855 38.1715H50.1855C50.5834 38.1715 50.9649 38.3295 51.2462 38.6108C51.5275 38.8921 51.6855 39.2737 51.6855 39.6715C51.6855 39.9407 51.6129 40.205 51.4755 40.4365C52.7641 40.0737 54.0969 39.8919 55.4355 39.8965C55.9455 39.8965 56.4405 39.8965 56.9355 39.9715V26.3965C56.9355 25.203 56.4614 24.0584 55.6175 23.2145C54.7736 22.3706 53.629 21.8965 52.4355 21.8965H26.9355C25.7421 21.8965 24.5975 22.3706 23.7536 23.2145C22.9097 24.0584 22.4355 25.203 22.4355 26.3965V62.3965C22.4355 63.59 22.9097 64.7346 23.7536 65.5785C24.5975 66.4224 25.7421 66.8965 26.9355 66.8965H46.4355C44.451 65.4022 42.8686 63.4384 41.8305 61.1815ZM29.1855 28.1815H50.1855C50.5834 28.1815 50.9649 28.3395 51.2462 28.6208C51.5275 28.9021 51.6855 29.2837 51.6855 29.6815C51.6855 30.0793 51.5275 30.4608 51.2462 30.7421C50.9649 31.0234 50.5834 31.1815 50.1855 31.1815H29.1855C28.7877 31.1815 28.4062 31.0234 28.1249 30.7421C27.8436 30.4608 27.6855 30.0793 27.6855 29.6815C27.6855 29.2837 27.8436 28.9021 28.1249 28.6208C28.4062 28.3395 28.7877 28.1815 29.1855 28.1815Z" fill="#1D1D1D"></path><path d="M55.4356 42.8965C53.0622 42.8965 50.7421 43.6003 48.7687 44.9188C46.7953 46.2374 45.2572 48.1116 44.349 50.3043C43.4407 52.497 43.2031 54.9098 43.6661 57.2376C44.1292 59.5653 45.272 61.7035 46.9503 63.3818C48.6285 65.06 50.7667 66.2029 53.0945 66.6659C55.4222 67.1289 57.835 66.8913 60.0278 65.983C62.2205 65.0748 64.0946 63.5367 65.4132 61.5633C66.7318 59.5899 67.4356 57.2699 67.4356 54.8965C67.4356 51.7139 66.1713 48.6616 63.9208 46.4112C61.6704 44.1608 58.6182 42.8965 55.4356 42.8965ZM60.1756 53.7715L54.9856 58.2715C54.716 58.5093 54.37 58.6423 54.0106 58.6465C53.6459 58.646 53.294 58.5127 53.0206 58.2715L50.6956 56.2615C50.5468 56.1315 50.4252 55.9734 50.3375 55.7964C50.2499 55.6194 50.1979 55.4268 50.1847 55.2297C50.1715 55.0327 50.1972 54.8349 50.2604 54.6477C50.3236 54.4606 50.423 54.2877 50.5531 54.139C50.6831 53.9903 50.8411 53.8686 51.0181 53.781C51.1951 53.6933 51.3877 53.6414 51.5848 53.6281C51.7819 53.6149 51.9797 53.6406 52.1668 53.7038C52.354 53.767 52.5268 53.8665 52.6756 53.9965L54.0106 55.1515L58.1956 51.5215C58.3416 51.3812 58.5145 51.272 58.7039 51.2003C58.8933 51.1287 59.0952 51.0961 59.2975 51.1046C59.4998 51.1131 59.6983 51.1625 59.8811 51.2497C60.0638 51.337 60.2269 51.4603 60.3607 51.6123C60.4945 51.7644 60.5961 51.9419 60.6594 52.1342C60.7227 52.3265 60.7465 52.5297 60.7292 52.7315C60.7119 52.9332 60.6539 53.1294 60.5587 53.3081C60.4636 53.4868 60.3332 53.6445 60.1756 53.7715Z" fill="#1D1D1D"></path></svg>